<?xml version="1.0" encoding="utf-8"?>
<!-- Generator: Adobe Illustrator 17.0.0, SVG Export Plug-In . SVG Version: 6.00 Build 0)  -->
<!DOCTYPE svg PUBLIC "-//W3C//DTD SVG 1.1//EN" "http://www.w3.org/Graphics/SVG/1.1/DTD/svg11.dtd">
<svg version="1.1" id="Layer_1" xmlns="http://www.w3.org/2000/svg" xmlns:xlink="http://www.w3.org/1999/xlink" x="0px" y="0px"
	 width="33px" height="26.797px" viewBox="0 0 33 26.797" enable-background="new 0 0 33 26.797" xml:space="preserve">
<g id="YcanK9_1_">
	<g>
		<path fill-rule="evenodd" clip-rule="evenodd" d="M11.661,12.569c-1.094-1.404-4.044-3.556-4.899-3.967
			C3.195,6.89,2.186,9.299,2.627,12.367c0.297,2.061,0.949,4.138,1.766,5.899c1.607,3.464,4.003,5.672,6.6,7.427
			c0.496,0.335,0.995,0.66,1.666,1.104C4.788,24.54-1.009,16.308,0.147,4.482C4.061,5.16,9.246,6.297,11.661,12.569z"/>
		<path fill-rule="evenodd" clip-rule="evenodd" fill="#787878" d="M18.581,24.462c-0.226-2.82,1.395-8.142,4.233-10.789
			c3.885-3.622,6.943-3.82,8.844-4.261c2.487,5.131,1.73,13.02-4.067,15.654c2.293-1.515,3.694-6.52,3.567-8.891
			c-0.18-3.356-2.293-4.808-6.625-1.844C20.132,17.343,18.963,23.015,18.581,24.462z"/>
		<path fill-rule="evenodd" clip-rule="evenodd" fill="#484848" d="M14.999,21.986c-4.018-6.206-3.878-11.974,0.299-16.939
			C16.919,3.12,18.814,1.668,20.584,0c1.615,1.477,5.409,4.935,7.363,10.324c-3.257-5.388-8.143-7.936-11.998-3.178
			C12.7,11.154,13.423,16.339,14.999,21.986z"/>
	</g>
</g>
</svg>
